<svg class="typst-doc" viewBox="0 0 90 127.2792204" width="90pt" height="127.2792204pt" xmlns="http://www.w3.org/2000/svg" xmlns:xlink="http://www.w3.org/1999/xlink" xmlns:h5="http://www.w3.org/1999/xhtml">
    <path class="typst-shape" fill="#ffffff" fill-rule="nonzero" d="M 0 0v 127.27922 h 90 v -127.27922 Z "/>
    <g>
        <path class="typst-shape" fill="none" stroke="#94a3b8" stroke-width="0.5" stroke-linecap="butt" stroke-linejoin="miter" stroke-miterlimit="4" d="M 0 0v 127.27922 h 90 v -127.27922 Z "/>
        <g class="typst-group" transform="matrix(1 0 0 1 14.200000000000001 0)">
            <g>
                <g class="typst-text" transform="matrix(1 0 0 -1 32.523076923076914 26.535384615384615)">
                    <use xlink:href="#gA936440A426BE55F3A0053862422F1D9" x="0" y="0" fill="#000000" fill-rule="nonzero"/>
                    <use xlink:href="#g153F3D795ADA029EA56399835D7B80F2" x="15.538461538461538" y="0" fill="#000000" fill-rule="nonzero"/>
                </g>
                <g class="typst-group">
                    <g>
                        <g class="typst-text" transform="matrix(1 0 0 -1 0 53.79338461538461)">
                            <use xlink:href="#g10260AB0FE24498D0DC5088CEAA9A6B9" x="0" y="0" fill="#000000" fill-rule="nonzero"/>
                        </g>
                        <g class="typst-text" transform="matrix(1 0 0 -1 48.06153846153846 54.170769230769224)">
                            <use xlink:href="#g394820FEDCC7BE4B0CBFEC5CD82B1DE5" x="0" y="0" fill="#000000" fill-rule="nonzero"/>
                        </g>
                    </g>
                </g>
                <path class="typst-shape" fill="none" stroke="#000000" stroke-width="0.8" stroke-linecap="butt" stroke-linejoin="miter" stroke-miterlimit="4" transform="matrix(1 0 0 1 0 60.770769230769226)" d="M 0 0h 61.6 "/>
                <g class="typst-text" transform="matrix(1 0 0 -1 33.475 87.37272235576921)">
                    <use xlink:href="#gBBFEF4F2A53785B343D80283D066594" x="0" y="0" fill="#4a4a4a" fill-rule="nonzero"/>
                    <use xlink:href="#g746EE5777985C7B158CA2B9EBCF354F4" x="15.53515625" y="0" fill="#4a4a4a" fill-rule="nonzero"/>
                </g>
            </g>
        </g>
    </g>
    <defs id="glyph">
        <symbol id="gA936440A426BE55F3A0053862422F1D9" overflow="visible">
            <path d="M 0 0m 6.0810256 15.783589 q 1.4666667 0 2.5158973 -0.56974316 q 1.0492306 -0.5697441 1.6076918 -1.5512829 q 0.55846214 -0.9815378 0.55846214 -2.2112818 q 0 -1.0717945 -0.37230778 -2.0928202 q -0.37230778 -1.0210257 -1.1902561 -2.14359 q -0.8179493 -1.1225638 -2.149231 -2.4876919 q -1.3312821 -1.3651283 -3.2492309 -3.1138463 h 7.3220515 l -0.23692322 -1.6133333 h -9.24 v 1.545641 q 2.1999998 2.1097436 3.5933332 3.5651283 q 1.393333 1.4553843 2.1605124 2.5102563 q 0.76717997 1.054872 1.066154 1.9348712 q 0.29897404 0.8800001 0.29897404 1.827693 q 0 1.3087177 -0.73333263 2.0646152 q -0.7333336 0.7558975 -2.0420518 0.7558975 q -1.1507692 0 -1.8841023 -0.3948717 q -0.73333335 -0.3948717 -1.4666667 -1.2635899 l -1.3087178 1.0153847 q 0.9251281 1.1282043 2.0476923 1.6753845 q 1.1225641 0.5471792 2.7020514 0.5471792 Z "/>
        </symbol>
        <symbol id="g153F3D795ADA029EA56399835D7B80F2" overflow="visible">
            <path d="M 0 0m 9.916923 9.702564 v -4.4112825 h 2.0082054 v -1.5117946 h -2.0082054 v -3.7794871 h -1.827692 l -0.011281967 3.7794871 h -6.4533334 v 1.37641 l 4.5579486 10.627692 l 1.5794873 -0.66564083 l -4.1292305 -9.826667 h 4.4564104 l 0.24820518 4.4112825 h 1.5794868 Z "/>
        </symbol>
        <symbol id="g10260AB0FE24498D0DC5088CEAA9A6B9" overflow="visible">
            <path d="M 0 0m 8.228 10.12 l -2.7279997 -2.7279997 l -2.728 2.7279997 l -1.2320001 -1.2320004 l 2.7280002 -2.7279997 l -2.7280002 -2.728 l 1.2320001 -1.2319999 l 2.728 2.728 l 2.7279997 -2.728 l 1.2320004 1.2319999 l -2.7280002 2.728 l 2.7280002 2.7279997 Z "/>
        </symbol>
        <symbol id="g394820FEDCC7BE4B0CBFEC5CD82B1DE5" overflow="visible">
            <path d="M 0 0m 6.058461 15.783589 q 1.4666667 0 2.5384617 -0.5302563 q 1.0717945 -0.5302563 1.6528206 -1.4102564 q 0.5810251 -0.8800001 0.5810251 -1.9405127 q 0 -0.9476929 -0.41743565 -1.7092314 q -0.41743565 -0.7615385 -1.1056404 -1.2579479 q -0.6882057 -0.49641037 -1.5117955 -0.65435886 q 0.9138465 -0.06769276 1.7205129 -0.5133338 q 0.8066664 -0.44564104 1.3087177 -1.2692308 q 0.50205135 -0.8235898 0.50205135 -2.019487 q 0 -1.3425641 -0.6769228 -2.42 q -0.6769228 -1.0774359 -1.8897438 -1.6979487 q -1.21282 -0.62051284 -2.8261538 -0.62051284 q -1.3087177 0 -2.5948715 0.49641025 q -1.2861538 0.49641022 -2.1774359 1.5794871 l 1.2748718 1.0379487 q 0.66564107 -0.77846146 1.5851283 -1.1620513 q 0.919487 -0.38358963 1.8671794 -0.38358963 q 1.6246152 0 2.5384617 0.8517947 q 0.913846 0.85179496 0.913846 2.3184617 q 0 1.6584616 -0.919487 2.3015385 q -0.9194875 0.6430769 -2.295898 0.6430769 h -1.3087177 l 0.23692322 1.5005131 h 0.913846 q 0.7558975 0 1.4271793 0.29333305 q 0.6712823 0.29333305 1.0999999 0.8912821 q 0.42871857 0.5979481 0.42871857 1.523077 q 0 1.2861538 -0.8574362 1.9630766 q -0.8574362 0.6769228 -2.0758977 0.6769228 q -1.0153842 0 -1.7712817 -0.35538483 q -0.7558975 -0.35538387 -1.523077 -1.0774355 l -1.0492307 1.1620512 q 0.9928204 0.93640995 2.1097436 1.3594875 q 1.1169231 0.42307663 2.3015382 0.42307663 Z "/>
        </symbol>
        <symbol id="gBBFEF4F2A53785B343D80283D066594" overflow="visible">
            <path d="M 0 0m 6.6601563 0 l -0.064453125 1.2460938 q 0 0.12890625 0 0.23632813 q 0 1.9765625 1.3535156 4.748047 q 0.5800781 1.1386719 1.1171875 2.1699219 q 0.5371094 1.03125 0.73046875 1.8691406 q -1.1601563 0 -2.2988281 -0.064453125 q -4.1679688 -0.23632813 -5.145508 -0.23632813 q -0.97753906 0 -1.7509766 0.04296875 q -0.23632813 0.107421875 -0.31152344 0.21484375 q -0.07519531 0.107421875 -0.07519531 0.30078125 q 0 0.19335938 0.07519531 0.30078125 q 0.07519531 0.107421875 0.31152344 0.21484375 q 0.40820313 -0.021484375 1.1601563 -0.021484375 q 0.7519531 0 2.0410156 0.15039063 q 1.2890625 0.15039063 2.7607422 0.37597656 q 1.4716797 0.22558594 2.9326172 0.4189453 q 1.4609375 0.19335938 2.921875 0.19335938 q 0.34375 0 0.515625 -0.171875 q 0.171875 -0.171875 0.171875 -0.3330078 q 0 -0.16113281 0 -0.22558594 q -3.7382813 -4.1464844 -4.5976563 -8.056641 q -0.171875 -0.8378906 -0.171875 -1.5898438 q 0 -0.7519531 0.12890625 -1.4394531 l -1.8046875 -0.34375 Z "/>
        </symbol>
        <symbol id="g746EE5777985C7B158CA2B9EBCF354F4" overflow="visible">
            <path d="M 0 0m 11.558594 3.5878906 q 0.7089844 0 0.7089844 -0.5371094 q 0 -0.5371094 -0.47265625 -0.7841797 q -0.47265625 -0.24707031 -1.0634766 -0.3544922 q -0.5908203 -0.107421875 -1.1064453 -0.11816406 q -0.515625 -0.0107421875 -0.65527344 -0.04296875 q -0.13964844 -0.032226563 -0.6230469 -0.171875 q -0.48339844 -0.13964844 -1.1494141 -0.32226563 q -0.6660156 -0.18261719 -1.4394531 -0.39746094 q -2.4277344 -0.64453125 -3.8671875 -0.64453125 q -0.73046875 0 -0.97753906 0.22558594 q -0.24707031 0.22558594 -0.09667969 0.63378906 q 1.6113281 1.4179688 3.3515625 3.6523438 q 2.5996094 3.3300781 2.5996094 5.1992188 q 0 0.36523438 -0.107421875 0.6875 q -0.23632813 0.6660156 -1.2246094 0.859375 q -0.9453125 0 -1.546875 -0.38671875 q -0.6015625 -0.38671875 -1.1279297 -0.859375 q -0.5263672 -0.47265625 -1.0742188 -0.859375 q -0.54785156 -0.38671875 -1.3427734 -0.38671875 q 0.021484375 0.7089844 0.5800781 1.375 q 1.1171875 1.375 3.1582031 1.9765625 q 0.73046875 0.23632813 1.1601563 0.23632813 q 0.4296875 0 0.64453125 -0.021484375 q 0.8378906 -0.0859375 1.4394531 -0.6015625 q 0.6015625 -0.515625 0.7089844 -1.5898438 q 0 -3.0292969 -2.8359375 -6.7246094 q -0.7734375 -1.0097656 -1.5253906 -1.8691406 q 0.23632813 -0.021484375 0.74121094 -0.021484375 q 0.5048828 0 1.3857422 0.24707031 q 0.8808594 0.24707031 1.8691406 0.6015625 q 0.98828125 0.3544922 1.9550781 0.6767578 q 0.9667969 0.32226563 1.9335938 0.32226563 Z "/>
        </symbol>
    </defs>
</svg>
